<?xml version="1.0" encoding="UTF-8"?>
<svg id="Layer_1" data-name="Layer 1" xmlns="http://www.w3.org/2000/svg" viewBox="0 0 1000 1000">
  <defs>
    <style>
      .cls-1 {
        fill: #6b9e41;
      }

      .cls-2 {
        fill: none;
      }

      .cls-3 {
        fill: #84b740;
      }

      .cls-4 {
        fill: #cada2a;
      }
    </style>
  </defs>
  <path class="cls-4" d="M757.57,962.4c3.91-22.3,131.38-760.19-41.72-864.91C542.39-7.33,222.13,302.81,213.54,311.14,321.91,203.8,531.13,26.43,699.56,62.96c235.07,50.97,62.94,876.16,58.01,899.44Z"/>
  <polygon class="cls-1" points="614.37 315.3 509.5 736.63 140.89 388.26 499.79 708.83 614.37 315.3"/>
  <path class="cls-3" d="M757.57,962.4c-.05.36-.1.51-.1.51,20.4-358.8-3.34-686.5-108.98-756.54-119.15-79.02-354.17,194.57-354.17,194.57l156.12,142.32,163.93-227.98-114.58,393.53L140.89,388.26s27.54-32.47,72.5-76.97c0,0,.05-.05.15-.15,8.58-8.32,328.84-318.46,502.31-213.64,173.1,104.72,45.63,842.61,41.72,864.91Z"/>
  <path class="cls-2" d="M213.54,311.14l-.15.15"/>
  <path class="cls-2" d="M757.57,962.4c-.05.36-.1.51-.1.51"/>
</svg>